<mxfile host="app.diagrams.net" agent="Mozilla/5.0 (Windows NT 10.0; Win64; x64) AppleWebKit/537.36 (KHTML, like Gecko) Chrome/131.0.0.0 Safari/537.36 Edg/131.0.0.0" version="24.8.8">
  <diagram name="Page-1" id="B9uW1iF3-0GMUPGcXEe-">
    <mxGraphModel dx="1042" dy="565" grid="1" gridSize="10" guides="1" tooltips="1" connect="1" arrows="1" fold="1" page="1" pageScale="1" pageWidth="827" pageHeight="1169" math="0" shadow="0">
      <root>
        <mxCell id="0" />
        <mxCell id="1" parent="0" />
        <mxCell id="HhMDyY6Bt_DrtfRVp4Wx-1" value="User" style="swimlane;childLayout=stackLayout;horizontal=1;startSize=50;horizontalStack=0;rounded=1;fontSize=14;fontStyle=0;strokeWidth=2;resizeParent=0;resizeLast=1;shadow=0;dashed=0;align=center;arcSize=4;whiteSpace=wrap;html=1;" parent="1" vertex="1">
          <mxGeometry x="420" y="380" width="160" height="170" as="geometry" />
        </mxCell>
        <mxCell id="HhMDyY6Bt_DrtfRVp4Wx-2" value="Id int (PK)&lt;br&gt;FirstName text&lt;div&gt;LastName text&lt;/div&gt;&lt;div&gt;Password text&lt;/div&gt;&lt;div&gt;DateOfBirth date&lt;/div&gt;&lt;div&gt;&lt;br&gt;&lt;/div&gt;" style="align=left;strokeColor=none;fillColor=none;spacingLeft=4;fontSize=12;verticalAlign=top;resizable=0;rotatable=0;part=1;html=1;" parent="HhMDyY6Bt_DrtfRVp4Wx-1" vertex="1">
          <mxGeometry y="50" width="160" height="120" as="geometry" />
        </mxCell>
        <mxCell id="HhMDyY6Bt_DrtfRVp4Wx-3" value="Movie" style="swimlane;childLayout=stackLayout;horizontal=1;startSize=50;horizontalStack=0;rounded=1;fontSize=14;fontStyle=0;strokeWidth=2;resizeParent=0;resizeLast=1;shadow=0;dashed=0;align=center;arcSize=4;whiteSpace=wrap;html=1;" parent="1" vertex="1">
          <mxGeometry x="510" y="610" width="230" height="200" as="geometry" />
        </mxCell>
        <mxCell id="HhMDyY6Bt_DrtfRVp4Wx-4" value="Id (PK)&lt;br&gt;Title text&lt;div&gt;Description text&lt;/div&gt;&lt;div&gt;ReleaseDate date&lt;/div&gt;&lt;div&gt;Duration int&lt;/div&gt;&lt;div&gt;ContentType text enum(Movie, TV-Series)&lt;/div&gt;&lt;div&gt;GenreId int&amp;nbsp;&lt;span style=&quot;background-color: initial;&quot;&gt;(FK)&lt;/span&gt;&lt;/div&gt;&lt;div&gt;CountryId int (FK)&lt;/div&gt;&lt;div&gt;&lt;br&gt;&lt;/div&gt;&lt;div&gt;&lt;br&gt;&lt;br&gt;&lt;/div&gt;" style="align=left;strokeColor=none;fillColor=none;spacingLeft=4;fontSize=12;verticalAlign=top;resizable=0;rotatable=0;part=1;html=1;" parent="HhMDyY6Bt_DrtfRVp4Wx-3" vertex="1">
          <mxGeometry y="50" width="230" height="150" as="geometry" />
        </mxCell>
        <mxCell id="HhMDyY6Bt_DrtfRVp4Wx-5" value="Genre" style="swimlane;childLayout=stackLayout;horizontal=1;startSize=50;horizontalStack=0;rounded=1;fontSize=14;fontStyle=0;strokeWidth=2;resizeParent=0;resizeLast=1;shadow=0;dashed=0;align=center;arcSize=4;whiteSpace=wrap;html=1;" parent="1" vertex="1">
          <mxGeometry x="1020" y="690" width="160" height="120" as="geometry" />
        </mxCell>
        <mxCell id="HhMDyY6Bt_DrtfRVp4Wx-6" value="Id (PK)&lt;br&gt;&lt;div&gt;Name text&lt;/div&gt;" style="align=left;strokeColor=none;fillColor=none;spacingLeft=4;fontSize=12;verticalAlign=top;resizable=0;rotatable=0;part=1;html=1;" parent="HhMDyY6Bt_DrtfRVp4Wx-5" vertex="1">
          <mxGeometry y="50" width="160" height="70" as="geometry" />
        </mxCell>
        <mxCell id="HhMDyY6Bt_DrtfRVp4Wx-7" value="Rating" style="swimlane;childLayout=stackLayout;horizontal=1;startSize=50;horizontalStack=0;rounded=1;fontSize=14;fontStyle=0;strokeWidth=2;resizeParent=0;resizeLast=1;shadow=0;dashed=0;align=center;arcSize=4;whiteSpace=wrap;html=1;" parent="1" vertex="1">
          <mxGeometry x="334" y="800" width="160" height="170" as="geometry" />
        </mxCell>
        <mxCell id="HhMDyY6Bt_DrtfRVp4Wx-8" value="&lt;div&gt;MovieId int&amp;nbsp;&lt;span style=&quot;background-color: initial;&quot;&gt;(FK) (PK)&lt;/span&gt;&lt;/div&gt;&lt;div&gt;UserId int&amp;nbsp;&lt;span style=&quot;background-color: initial;&quot;&gt;(FK) (PK)&lt;/span&gt;&lt;/div&gt;&lt;div&gt;Rating int&lt;/div&gt;&lt;div&gt;&lt;span style=&quot;background-color: initial;&quot;&gt;Date date&lt;/span&gt;&lt;/div&gt;" style="align=left;strokeColor=none;fillColor=none;spacingLeft=4;fontSize=12;verticalAlign=top;resizable=0;rotatable=0;part=1;html=1;" parent="HhMDyY6Bt_DrtfRVp4Wx-7" vertex="1">
          <mxGeometry y="50" width="160" height="120" as="geometry" />
        </mxCell>
        <mxCell id="HhMDyY6Bt_DrtfRVp4Wx-9" value="Actor" style="swimlane;childLayout=stackLayout;horizontal=1;startSize=50;horizontalStack=0;rounded=1;fontSize=14;fontStyle=0;strokeWidth=2;resizeParent=0;resizeLast=1;shadow=0;dashed=0;align=center;arcSize=4;whiteSpace=wrap;html=1;" parent="1" vertex="1">
          <mxGeometry x="1010" y="550" width="160" height="120" as="geometry" />
        </mxCell>
        <mxCell id="HhMDyY6Bt_DrtfRVp4Wx-10" value="Id int (PK)&lt;br&gt;&lt;div&gt;Name text&lt;/div&gt;&lt;div&gt;&lt;br&gt;&lt;/div&gt;" style="align=left;strokeColor=none;fillColor=none;spacingLeft=4;fontSize=12;verticalAlign=top;resizable=0;rotatable=0;part=1;html=1;" parent="HhMDyY6Bt_DrtfRVp4Wx-9" vertex="1">
          <mxGeometry y="50" width="160" height="70" as="geometry" />
        </mxCell>
        <mxCell id="HhMDyY6Bt_DrtfRVp4Wx-11" value="MovieActor" style="swimlane;childLayout=stackLayout;horizontal=1;startSize=50;horizontalStack=0;rounded=1;fontSize=14;fontStyle=0;strokeWidth=2;resizeParent=0;resizeLast=1;shadow=0;dashed=0;align=center;arcSize=4;whiteSpace=wrap;html=1;" parent="1" vertex="1">
          <mxGeometry x="770" y="540" width="160" height="120" as="geometry" />
        </mxCell>
        <mxCell id="HhMDyY6Bt_DrtfRVp4Wx-12" value="MovieId int (FK) (PK)&lt;br&gt;&lt;div&gt;ActorId int&amp;nbsp;&lt;span style=&quot;background-color: initial;&quot;&gt;(FK) (PK)&lt;/span&gt;&lt;/div&gt;&lt;div&gt;&lt;br&gt;&lt;/div&gt;" style="align=left;strokeColor=none;fillColor=none;spacingLeft=4;fontSize=12;verticalAlign=top;resizable=0;rotatable=0;part=1;html=1;" parent="HhMDyY6Bt_DrtfRVp4Wx-11" vertex="1">
          <mxGeometry y="50" width="160" height="70" as="geometry" />
        </mxCell>
        <mxCell id="HhMDyY6Bt_DrtfRVp4Wx-13" value="" style="edgeStyle=orthogonalEdgeStyle;fontSize=12;html=1;endArrow=ERzeroToMany;startArrow=ERone;rounded=0;exitX=1.011;exitY=0.091;exitDx=0;exitDy=0;exitPerimeter=0;entryX=-0.014;entryY=0.383;entryDx=0;entryDy=0;entryPerimeter=0;startFill=0;" parent="1" source="HhMDyY6Bt_DrtfRVp4Wx-4" target="HhMDyY6Bt_DrtfRVp4Wx-12" edge="1">
          <mxGeometry width="100" height="100" relative="1" as="geometry">
            <mxPoint x="800" y="880" as="sourcePoint" />
            <mxPoint x="900" y="780" as="targetPoint" />
          </mxGeometry>
        </mxCell>
        <mxCell id="HhMDyY6Bt_DrtfRVp4Wx-14" value="" style="edgeStyle=orthogonalEdgeStyle;fontSize=12;html=1;endArrow=ERzeroToMany;startArrow=ERone;rounded=0;entryX=0.981;entryY=0.623;entryDx=0;entryDy=0;entryPerimeter=0;exitX=-0.011;exitY=0.137;exitDx=0;exitDy=0;exitPerimeter=0;startFill=0;" parent="1" source="HhMDyY6Bt_DrtfRVp4Wx-10" target="HhMDyY6Bt_DrtfRVp4Wx-12" edge="1">
          <mxGeometry width="100" height="100" relative="1" as="geometry">
            <mxPoint x="800" y="880" as="sourcePoint" />
            <mxPoint x="900" y="780" as="targetPoint" />
          </mxGeometry>
        </mxCell>
        <mxCell id="HhMDyY6Bt_DrtfRVp4Wx-15" value="" style="fontSize=12;html=1;endArrow=ERzeroToMany;startArrow=ERone;rounded=0;exitX=0;exitY=0.25;exitDx=0;exitDy=0;entryX=0.983;entryY=0.394;entryDx=0;entryDy=0;entryPerimeter=0;startFill=0;" parent="1" source="HhMDyY6Bt_DrtfRVp4Wx-6" target="pklObAc-28i7Nq0LAzg--2" edge="1">
          <mxGeometry width="100" height="100" relative="1" as="geometry">
            <mxPoint x="940" y="780" as="sourcePoint" />
            <mxPoint x="875.6300000000001" y="763.2" as="targetPoint" />
          </mxGeometry>
        </mxCell>
        <mxCell id="HhMDyY6Bt_DrtfRVp4Wx-16" value="" style="edgeStyle=orthogonalEdgeStyle;fontSize=12;html=1;endArrow=ERzeroToMany;startArrow=ERone;rounded=0;exitX=0.25;exitY=1;exitDx=0;exitDy=0;entryX=1;entryY=0.25;entryDx=0;entryDy=0;startFill=0;" parent="1" source="HhMDyY6Bt_DrtfRVp4Wx-4" target="HhMDyY6Bt_DrtfRVp4Wx-8" edge="1">
          <mxGeometry width="100" height="100" relative="1" as="geometry">
            <mxPoint x="600" y="860" as="sourcePoint" />
            <mxPoint x="700" y="760" as="targetPoint" />
            <Array as="points">
              <mxPoint x="570" y="880" />
            </Array>
          </mxGeometry>
        </mxCell>
        <mxCell id="HhMDyY6Bt_DrtfRVp4Wx-17" value="" style="edgeStyle=orthogonalEdgeStyle;fontSize=12;html=1;endArrow=ERzeroToMany;startArrow=ERone;rounded=0;exitX=0;exitY=0.25;exitDx=0;exitDy=0;entryX=0.25;entryY=0;entryDx=0;entryDy=0;startFill=0;" parent="1" source="HhMDyY6Bt_DrtfRVp4Wx-2" target="HhMDyY6Bt_DrtfRVp4Wx-7" edge="1">
          <mxGeometry width="100" height="100" relative="1" as="geometry">
            <mxPoint x="600" y="660" as="sourcePoint" />
            <mxPoint x="700" y="560" as="targetPoint" />
          </mxGeometry>
        </mxCell>
        <mxCell id="HhMDyY6Bt_DrtfRVp4Wx-18" value="Server" style="swimlane;childLayout=stackLayout;horizontal=1;startSize=50;horizontalStack=0;rounded=1;fontSize=14;fontStyle=0;strokeWidth=2;resizeParent=0;resizeLast=1;shadow=0;dashed=0;align=center;arcSize=4;whiteSpace=wrap;html=1;" parent="1" vertex="1">
          <mxGeometry x="760" y="820" width="160" height="130" as="geometry" />
        </mxCell>
        <mxCell id="HhMDyY6Bt_DrtfRVp4Wx-19" value="Id int (PK)&lt;div&gt;Name text&lt;br&gt;&lt;div&gt;Url text&lt;/div&gt;&lt;div&gt;EpisodeId int (FK)&lt;/div&gt;&lt;div&gt;MovieId int (FK)&lt;/div&gt;&lt;/div&gt;" style="align=left;strokeColor=none;fillColor=none;spacingLeft=4;fontSize=12;verticalAlign=top;resizable=0;rotatable=0;part=1;html=1;" parent="HhMDyY6Bt_DrtfRVp4Wx-18" vertex="1">
          <mxGeometry y="50" width="160" height="80" as="geometry" />
        </mxCell>
        <mxCell id="HhMDyY6Bt_DrtfRVp4Wx-20" value="Episode" style="swimlane;childLayout=stackLayout;horizontal=1;startSize=50;horizontalStack=0;rounded=1;fontSize=14;fontStyle=0;strokeWidth=2;resizeParent=0;resizeLast=1;shadow=0;dashed=0;align=center;arcSize=4;whiteSpace=wrap;html=1;" parent="1" vertex="1">
          <mxGeometry x="760" y="1000" width="160" height="120" as="geometry" />
        </mxCell>
        <mxCell id="HhMDyY6Bt_DrtfRVp4Wx-21" value="Id int (PK)&lt;br&gt;&lt;div&gt;Title text&lt;/div&gt;&lt;div&gt;SeasonId int (FK)&lt;/div&gt;" style="align=left;strokeColor=none;fillColor=none;spacingLeft=4;fontSize=12;verticalAlign=top;resizable=0;rotatable=0;part=1;html=1;" parent="HhMDyY6Bt_DrtfRVp4Wx-20" vertex="1">
          <mxGeometry y="50" width="160" height="70" as="geometry" />
        </mxCell>
        <mxCell id="HhMDyY6Bt_DrtfRVp4Wx-22" value="" style="fontSize=12;html=1;endArrow=ERzeroToMany;startArrow=ERzeroToOne;rounded=0;exitX=1;exitY=0.25;exitDx=0;exitDy=0;startFill=0;edgeStyle=orthogonalEdgeStyle;entryX=1;entryY=0.25;entryDx=0;entryDy=0;" parent="1" source="HhMDyY6Bt_DrtfRVp4Wx-20" target="HhMDyY6Bt_DrtfRVp4Wx-19" edge="1">
          <mxGeometry width="100" height="100" relative="1" as="geometry">
            <mxPoint x="813" y="1035" as="sourcePoint" />
            <mxPoint x="920" y="900" as="targetPoint" />
            <Array as="points">
              <mxPoint x="990" y="1030" />
              <mxPoint x="990" y="890" />
            </Array>
          </mxGeometry>
        </mxCell>
        <mxCell id="HhMDyY6Bt_DrtfRVp4Wx-23" value="Season" style="swimlane;childLayout=stackLayout;horizontal=1;startSize=50;horizontalStack=0;rounded=1;fontSize=14;fontStyle=0;strokeWidth=2;resizeParent=0;resizeLast=1;shadow=0;dashed=0;align=center;arcSize=4;whiteSpace=wrap;html=1;" parent="1" vertex="1">
          <mxGeometry x="530" y="970" width="160" height="120" as="geometry" />
        </mxCell>
        <mxCell id="HhMDyY6Bt_DrtfRVp4Wx-24" value="Id int (PK)&lt;br&gt;&lt;div&gt;Title text&lt;/div&gt;&lt;div&gt;MovieId int (FK)&lt;/div&gt;" style="align=left;strokeColor=none;fillColor=none;spacingLeft=4;fontSize=12;verticalAlign=top;resizable=0;rotatable=0;part=1;html=1;" parent="HhMDyY6Bt_DrtfRVp4Wx-23" vertex="1">
          <mxGeometry y="50" width="160" height="70" as="geometry" />
        </mxCell>
        <mxCell id="HhMDyY6Bt_DrtfRVp4Wx-25" value="" style="fontSize=12;html=1;endArrow=ERzeroToMany;startArrow=ERone;rounded=0;exitX=1;exitY=0.5;exitDx=0;exitDy=0;entryX=0;entryY=0;entryDx=0;entryDy=0;startFill=0;" parent="1" source="HhMDyY6Bt_DrtfRVp4Wx-24" target="HhMDyY6Bt_DrtfRVp4Wx-21" edge="1">
          <mxGeometry width="100" height="100" relative="1" as="geometry">
            <mxPoint x="630" y="1080" as="sourcePoint" />
            <mxPoint x="750" y="1025" as="targetPoint" />
          </mxGeometry>
        </mxCell>
        <mxCell id="HhMDyY6Bt_DrtfRVp4Wx-26" value="" style="fontSize=12;html=1;endArrow=ERzeroToMany;startArrow=baseDash;rounded=0;exitX=0.5;exitY=1;exitDx=0;exitDy=0;entryX=0.5;entryY=0;entryDx=0;entryDy=0;startFill=0;" parent="1" source="HhMDyY6Bt_DrtfRVp4Wx-4" target="HhMDyY6Bt_DrtfRVp4Wx-23" edge="1">
          <mxGeometry width="100" height="100" relative="1" as="geometry">
            <mxPoint x="680" y="1085" as="sourcePoint" />
            <mxPoint x="760" y="1040" as="targetPoint" />
          </mxGeometry>
        </mxCell>
        <mxCell id="HhMDyY6Bt_DrtfRVp4Wx-27" value="" style="edgeStyle=orthogonalEdgeStyle;fontSize=12;html=1;endArrow=ERzeroToMany;startArrow=ERzeroToOne;rounded=0;entryX=1.001;entryY=0.875;entryDx=0;entryDy=0;entryPerimeter=0;exitX=0.5;exitY=0;exitDx=0;exitDy=0;" parent="1" source="HhMDyY6Bt_DrtfRVp4Wx-18" target="HhMDyY6Bt_DrtfRVp4Wx-4" edge="1">
          <mxGeometry width="100" height="100" relative="1" as="geometry">
            <mxPoint x="750" y="870" as="sourcePoint" />
            <mxPoint x="850" y="770" as="targetPoint" />
          </mxGeometry>
        </mxCell>
        <mxCell id="HhMDyY6Bt_DrtfRVp4Wx-28" value="Country" style="swimlane;childLayout=stackLayout;horizontal=1;startSize=50;horizontalStack=0;rounded=1;fontSize=14;fontStyle=0;strokeWidth=2;resizeParent=0;resizeLast=1;shadow=0;dashed=0;align=center;arcSize=4;whiteSpace=wrap;html=1;" parent="1" vertex="1">
          <mxGeometry x="640" y="370" width="160" height="120" as="geometry" />
        </mxCell>
        <mxCell id="HhMDyY6Bt_DrtfRVp4Wx-29" value="Id int (PK)&lt;br&gt;&lt;div&gt;Name text&lt;/div&gt;" style="align=left;strokeColor=none;fillColor=none;spacingLeft=4;fontSize=12;verticalAlign=top;resizable=0;rotatable=0;part=1;html=1;" parent="HhMDyY6Bt_DrtfRVp4Wx-28" vertex="1">
          <mxGeometry y="50" width="160" height="70" as="geometry" />
        </mxCell>
        <mxCell id="HhMDyY6Bt_DrtfRVp4Wx-30" value="" style="fontSize=12;html=1;endArrow=ERone;startArrow=ERmany;rounded=0;exitX=0.75;exitY=0;exitDx=0;exitDy=0;entryX=0.5;entryY=1;entryDx=0;entryDy=0;startFill=0;endFill=0;" parent="1" source="HhMDyY6Bt_DrtfRVp4Wx-3" target="HhMDyY6Bt_DrtfRVp4Wx-29" edge="1">
          <mxGeometry width="100" height="100" relative="1" as="geometry">
            <mxPoint x="650" y="600" as="sourcePoint" />
            <mxPoint x="750" y="500" as="targetPoint" />
          </mxGeometry>
        </mxCell>
        <mxCell id="pklObAc-28i7Nq0LAzg--1" value="MovieGenre" style="swimlane;childLayout=stackLayout;horizontal=1;startSize=50;horizontalStack=0;rounded=1;fontSize=14;fontStyle=0;strokeWidth=2;resizeParent=0;resizeLast=1;shadow=0;dashed=0;align=center;arcSize=4;whiteSpace=wrap;html=1;" parent="1" vertex="1">
          <mxGeometry x="800" y="680" width="160" height="120" as="geometry" />
        </mxCell>
        <mxCell id="pklObAc-28i7Nq0LAzg--2" value="MovieId int (FK) (PK)&lt;br&gt;&lt;div&gt;ActorId int&amp;nbsp;&lt;span style=&quot;background-color: initial;&quot;&gt;(FK) (PK)&lt;/span&gt;&lt;/div&gt;&lt;div&gt;&lt;br&gt;&lt;/div&gt;" style="align=left;strokeColor=none;fillColor=none;spacingLeft=4;fontSize=12;verticalAlign=top;resizable=0;rotatable=0;part=1;html=1;" parent="pklObAc-28i7Nq0LAzg--1" vertex="1">
          <mxGeometry y="50" width="160" height="70" as="geometry" />
        </mxCell>
        <mxCell id="pklObAc-28i7Nq0LAzg--4" value="" style="edgeStyle=orthogonalEdgeStyle;fontSize=12;html=1;endArrow=ERzeroToMany;startArrow=ERone;rounded=0;exitX=1;exitY=0.5;exitDx=0;exitDy=0;entryX=0.008;entryY=0.337;entryDx=0;entryDy=0;entryPerimeter=0;startFill=0;" parent="1" source="HhMDyY6Bt_DrtfRVp4Wx-4" target="pklObAc-28i7Nq0LAzg--1" edge="1">
          <mxGeometry width="100" height="100" relative="1" as="geometry">
            <mxPoint x="753" y="684" as="sourcePoint" />
            <mxPoint x="778" y="627" as="targetPoint" />
          </mxGeometry>
        </mxCell>
      </root>
    </mxGraphModel>
  </diagram>
</mxfile>
